<?xml version="1.0" encoding="UTF-8"?>
<!DOCTYPE svg PUBLIC "-//W3C//DTD SVG 1.1//EN" "http://www.w3.org/Graphics/SVG/1.1/DTD/svg11.dtd">
<!-- Creator: CorelDRAW X6 -->
<svg xmlns="http://www.w3.org/2000/svg" xml:space="preserve" width="420mm" height="297mm" version="1.1" style="shape-rendering:geometricPrecision; text-rendering:geometricPrecision; image-rendering:optimizeQuality; fill-rule:evenodd; clip-rule:evenodd"
viewBox="0 0 42000 29700"
 xmlns:xlink="http://www.w3.org/1999/xlink">
 <defs>
  <style type="text/css">
   <![CDATA[
    .fil5 {fill:black}
    .fil4 {fill:#00CBFF}
    .fil3 {fill:#80CF00}
    .fil6 {fill:#FEFEFE}
    .fil2 {fill:black;fill-rule:nonzero}
    .fil1 {fill:#00CBFF;fill-rule:nonzero}
    .fil8 {fill:gray;fill-rule:nonzero}
    .fil0 {fill:#80CF00;fill-rule:nonzero}
    .fil7 {fill:#FEFEFE;fill-rule:nonzero}
   ]]>
  </style>
 </defs>
 <g id="Capa_x0020_1">
  <metadata id="CorelCorpID_0Corel-Layer"/>
  <g id="_278771336">
   <g>
    <path class="fil0" d="M18336 17312l-794 0 0 -1973 -1773 0 0 1973 -801 0 0 -4607 801 0 0 1933 1773 0 0 -1933 794 0 0 4607zm1831 -3316c242,0 463,49 661,146 199,97 358,231 477,403 79,128 140,285 182,470 42,186 61,388 56,609 0,481 -75,852 -225,1112 -123,198 -294,352 -513,460 -218,108 -458,162 -718,162 -247,0 -469,-44 -665,-132 -196,-89 -352,-217 -467,-384 -181,-269 -267,-658 -258,-1165 0,-393 55,-702 166,-927 53,-110 134,-226 245,-347 110,-121 260,-219 450,-294 189,-75 392,-113 609,-113zm-27 675c-123,0 -237,33 -341,99 -103,67 -182,157 -235,272 -66,145 -103,359 -112,642 0,286 33,496 99,628 49,111 122,199 222,265 99,66 210,99 334,99 146,0 272,-39 380,-119 109,-79 187,-196 235,-351 40,-127 60,-322 60,-582 0,-256 -29,-448 -86,-576 -49,-123 -122,-217 -222,-281 -99,-64 -210,-96 -334,-96zm6397 2641l-742 0 0 -1953c0,-211 -51,-376 -155,-493 -104,-117 -257,-175 -460,-175 -80,0 -168,21 -265,63 -97,42 -180,118 -248,228 -68,110 -103,236 -103,377l0 1953 -747 0 0 -1953c0,-207 -53,-370 -159,-489 -106,-120 -258,-179 -457,-179 -79,0 -168,21 -265,63 -97,42 -181,118 -251,228 -71,110 -106,236 -106,377l0 1953 -748 0 0 -3276 748 0 0 350 20 7c92,-119 220,-214 384,-284 163,-71 326,-106 489,-106 411,0 713,156 907,470 141,-146 301,-261 480,-345 179,-83 365,-125 559,-125 335,0 606,100 811,301 205,201 308,484 308,850l0 2158zm3087 -1423l-2065 0c0,220 60,407 179,559 119,152 291,228 516,228 110,0 240,-26 387,-79 148,-53 277,-130 388,-232l436 523c-84,75 -189,151 -317,228 -128,78 -274,136 -437,176 -163,40 -324,59 -483,59 -472,0 -831,-143 -1076,-430 -245,-287 -367,-699 -367,-1237 0,-371 62,-680 185,-927 124,-247 293,-436 507,-566 214,-130 460,-195 737,-195 437,0 781,142 1033,427 251,284 377,665 377,1142l0 324zm-1416 -1211c-80,0 -167,20 -262,59 -94,40 -177,115 -248,225 -70,111 -112,243 -125,397l1257 0c-13,-211 -77,-378 -192,-499 -115,-122 -258,-182 -430,-182z"/>
    <path class="fil0" d="M18336 17330l-794 0 -18 0 0 -18 0 -1954 -1737 0 0 1954 0 18 -18 0 -801 0 -19 0 0 -18 0 -4607 0 -18 19 0 801 0 18 0 0 18 0 1914 1737 0 0 -1914 0 -18 18 0 794 0 19 0 0 18 0 4607 0 18 -19 0zm-775 -37l757 0 0 -4569 -757 0 0 1914 0 19 -19 0 -1773 0 -19 0 0 -19 0 -1914 -764 0 0 4569 764 0 0 -1954 0 -18 19 0 1773 0 19 0 0 18 0 1954zm2606 -3316c122,0 239,13 351,37 112,25 218,62 318,111 101,49 192,108 272,176 81,68 152,146 212,234l1 0c40,65 75,138 106,217 31,79 57,166 78,259 21,93 36,191 46,294 9,102 13,208 11,319l0 0c0,242 -19,456 -57,642 -38,188 -95,347 -171,479l0 1c-126,201 -299,357 -521,467 -110,54 -226,95 -347,123 -121,27 -248,41 -379,41 -125,0 -243,-11 -355,-34 -112,-22 -218,-56 -318,-100 -99,-45 -189,-100 -268,-165 -79,-65 -148,-140 -206,-226l0 0c-92,-136 -159,-303 -203,-499 -43,-196 -63,-421 -58,-676l0 0c0,-197 14,-374 41,-529l0 0c28,-156 70,-291 126,-406l0 0c27,-56 61,-113 102,-172 42,-58 90,-118 146,-179 56,-62 122,-118 199,-168 76,-50 162,-94 258,-132 96,-38 195,-66 298,-85 103,-19 208,-29 318,-29zm343 74c-109,-24 -223,-36 -343,-36 -108,0 -211,9 -312,27 -100,19 -197,47 -291,84 -93,37 -177,80 -251,128 -74,48 -138,102 -192,162 -54,60 -102,118 -142,176 -40,57 -74,112 -100,166l0 1c-54,110 -95,242 -122,395l0 0c-27,153 -41,328 -41,523l0 0c-5,253 15,475 57,668 43,191 109,354 198,486l0 0c56,83 123,155 199,218 76,63 163,116 260,160 96,43 200,76 309,98 110,21 226,32 348,32 129,0 253,-13 371,-40 118,-26 231,-66 339,-120 215,-106 384,-257 505,-453l0 0c74,-128 130,-284 167,-467 37,-184 55,-395 55,-635l1 0c2,-110 -2,-215 -11,-316 -9,-100 -24,-197 -45,-289 -21,-91 -46,-176 -76,-254 -30,-77 -65,-147 -104,-210 -58,-84 -127,-159 -205,-225 -78,-67 -166,-124 -264,-172 -98,-48 -201,-83 -310,-107zm-370 639c-120,0 -230,32 -331,96 -50,32 -94,70 -132,114 -38,44 -70,94 -96,149l0 0c-32,72 -58,160 -76,266 -19,106 -30,229 -35,369l0 0c0,284 33,490 98,620l0 1c24,53 53,102 89,144 36,43 78,81 126,113l0 0c48,32 99,56 153,72 54,16 111,24 171,24 71,0 137,-10 199,-29 61,-19 118,-48 171,-87 52,-38 97,-86 135,-142 38,-57 69,-124 93,-199l0 0c19,-63 34,-142 44,-238 9,-96 14,-209 14,-339 0,-253 -28,-443 -84,-568l0 -1c-24,-60 -54,-113 -89,-158 -36,-45 -78,-83 -126,-114 -48,-31 -99,-55 -153,-70 -54,-16 -111,-23 -171,-23zm-351 65c107,-68 224,-103 351,-103 64,0 124,9 181,25 58,17 112,41 163,74 52,34 97,74 135,123 38,48 69,104 94,168l0 0c59,130 88,324 88,582 0,131 -5,245 -15,343 -10,98 -26,180 -46,245l0 0c-25,79 -57,148 -97,208 -41,61 -89,111 -145,152 -55,41 -116,72 -181,92 -65,21 -135,31 -210,31 -64,0 -124,-9 -181,-26 -58,-17 -112,-42 -164,-76l0 0c-51,-34 -95,-74 -133,-120 -39,-45 -70,-96 -95,-153l0 0c-67,-135 -101,-347 -101,-636l0 -1c5,-142 16,-267 35,-375 19,-108 46,-200 79,-274l0 0c28,-59 61,-112 102,-158 40,-47 87,-87 140,-121zm6748 2575l-742 0 -18 0 0 -18 0 -1953c0,-104 -13,-196 -38,-276 -25,-80 -63,-148 -113,-204 -100,-113 -249,-169 -446,-169 -38,0 -79,5 -122,15 -43,10 -88,25 -135,46 -47,20 -90,48 -130,85 -40,37 -77,82 -110,136 -33,53 -58,111 -75,172 -17,61 -25,126 -25,195l0 1953 0 18 -19 0 -747 0 -19 0 0 -18 0 -1953c0,-101 -13,-192 -39,-272l0 0c-25,-79 -64,-147 -115,-205 -51,-57 -113,-100 -187,-129 -73,-29 -159,-43 -256,-43 -38,0 -79,5 -121,15 -43,10 -89,25 -136,46 -47,20 -90,48 -131,85 -41,37 -78,82 -112,136 -35,54 -61,111 -78,172 -17,61 -25,126 -25,195l0 1953 0 18 -19 0 -748 0 -19 0 0 -18 0 -3276 0 -19 19 0 748 0 19 0 0 19 0 329c44,-54 96,-103 155,-147 65,-49 139,-91 222,-127 166,-71 332,-107 497,-107 409,0 712,153 910,459 67,-67 138,-127 212,-181 81,-58 166,-108 257,-150 91,-43 183,-75 278,-96 94,-21 191,-32 289,-32 170,0 323,25 461,77 137,51 258,127 363,230 105,102 183,225 235,370 52,143 78,308 78,493l0 2158 0 18 -18 0zm-723 -37l704 0 0 -2139c0,-181 -25,-341 -76,-481 -50,-139 -126,-258 -226,-356 -101,-99 -218,-172 -350,-222 -133,-49 -282,-74 -448,-74 -96,0 -189,11 -281,31 -92,21 -182,52 -270,93 -88,42 -172,91 -251,147 -79,57 -154,122 -224,193l-16 18 -13 -21c-190,-307 -487,-461 -891,-461 -160,0 -321,35 -482,105 -80,34 -152,75 -215,122 -62,46 -116,98 -161,157l-9 10 -12 -4 -20 -7 -13 -4 0 -14 0 -332 -710 0 0 3239 710 0 0 -1934c0,-72 9,-140 28,-205 18,-65 45,-125 81,-182 36,-56 76,-104 119,-143 44,-40 91,-71 141,-92 50,-22 97,-38 142,-48 46,-11 89,-17 130,-17 102,0 192,16 270,46 79,31 146,77 201,139 54,62 95,134 123,219l0 0c27,83 40,178 40,283l0 1934 711 0 0 -1934c0,-72 9,-140 26,-205 18,-64 44,-125 79,-182 35,-56 74,-104 117,-143 43,-40 89,-71 140,-92 49,-22 97,-38 142,-48 45,-11 89,-17 130,-17 208,0 366,61 474,182 53,60 94,133 120,218 27,84 40,180 40,287l0 1934zm3810 -1386l-2046 0c2,102 16,195 44,281 29,91 72,174 131,249 57,73 128,128 211,165 83,37 180,56 290,56 108,0 235,-26 381,-79 73,-26 141,-58 204,-96 64,-38 123,-81 177,-131l14 -14 13 15 437 523 11 14 -13 12c-43,38 -91,76 -144,115 -54,38 -113,77 -177,115 -64,39 -134,74 -208,103 -73,30 -151,55 -234,75 -82,20 -164,35 -245,45 -81,10 -162,15 -242,15 -239,0 -449,-36 -630,-109 -182,-73 -335,-182 -460,-328 -124,-145 -217,-322 -279,-531 -62,-208 -93,-448 -93,-718 0,-374 63,-685 188,-935 125,-250 296,-442 513,-574 108,-66 225,-115 350,-148 124,-33 257,-50 397,-50 443,0 792,145 1047,434 127,144 223,312 287,505 63,192 95,408 95,649l0 324 0 18 -19 0zm-2065 -37l2047 0 0 -305c0,-237 -32,-449 -94,-637 -62,-188 -155,-353 -279,-493 -248,-280 -587,-420 -1019,-420 -137,0 -266,16 -388,48 -121,32 -234,80 -340,144 -211,128 -377,315 -499,558 -122,245 -183,551 -183,919 0,267 30,503 91,708 60,203 151,376 271,517 121,141 269,247 446,318 177,70 382,106 616,106 78,0 158,-5 237,-15 80,-10 161,-25 241,-44 81,-20 158,-44 230,-73 71,-29 139,-62 202,-100 64,-39 122,-77 174,-115 47,-33 89,-67 127,-100l-412 -494c-52,46 -108,87 -168,123 -66,40 -136,73 -211,100 -150,53 -281,80 -394,80 -115,0 -217,-20 -305,-59 -89,-39 -164,-98 -226,-177 -61,-77 -106,-164 -137,-259 -30,-95 -45,-199 -45,-311l0 -19 18 0zm649 -1174c-39,0 -79,5 -121,15 -42,9 -87,24 -133,43 -46,19 -89,47 -128,83 -40,36 -78,81 -112,135 -34,54 -62,113 -82,178 -19,59 -32,123 -39,191l1217 0c-8,-96 -26,-183 -55,-259 -31,-81 -75,-151 -131,-210 -55,-58 -118,-102 -187,-132 -69,-29 -146,-44 -229,-44zm-129 -22c45,-10 88,-15 129,-15 88,0 170,16 244,47 74,31 140,78 200,141 59,62 104,136 137,222 33,85 53,182 60,289l1 20 -20 0 -1257 0 -21 0 2 -20c7,-79 21,-152 42,-219 22,-68 50,-130 87,-187 36,-56 75,-104 118,-142 43,-39 89,-69 138,-90 49,-20 95,-35 140,-46z"/>
    <path class="fil0" d="M18052 21511l-3084 0 0 -4606 801 0 0 3878 2283 0 0 728zm1751 -3309c904,0 1357,362 1357,1085l0 2224 -748 0 0 -291 -13 -7c-40,53 -100,106 -179,159 -80,53 -180,95 -301,126 -122,31 -246,46 -374,46 -349,0 -625,-86 -827,-258 -203,-172 -305,-415 -305,-728 0,-203 50,-378 149,-526 99,-148 231,-261 394,-341 163,-79 353,-119 569,-119l887 0 0 -238c0,-314 -216,-470 -649,-470 -331,0 -591,90 -781,271l-397 -503c287,-287 693,-430 1218,-430zm-682 2303c0,110 48,205 143,285 94,79 241,119 440,119 132,0 253,-19 364,-56 110,-38 192,-94 245,-169 52,-75 83,-152 92,-232 5,-35 7,-139 7,-311l-761 0c-177,0 -309,34 -397,103 -89,68 -133,155 -133,261zm5457 -695c0,1156 -392,1734 -1178,1734 -154,0 -304,-28 -450,-86 -145,-57 -264,-145 -357,-265l-13 7 0 311 -748 0 0 -4811 748 0 0 1846 13 7c49,-53 115,-108 199,-166 83,-57 180,-102 291,-135 110,-33 216,-50 317,-50 777,0 1170,536 1178,1608zm-767 60c0,-327 -48,-568 -143,-725 -94,-157 -252,-235 -473,-235 -216,0 -373,82 -470,245 -97,163 -145,402 -145,715 0,190 20,365 59,526 40,161 110,279 209,354 99,75 215,113 347,113 194,0 346,-72 454,-216 108,-143 162,-402 162,-777zm3875 642c0,198 -58,380 -175,546 -117,165 -283,289 -496,370 -214,82 -436,123 -666,123 -573,0 -1048,-166 -1423,-497l404 -536c283,261 633,391 1052,391 120,0 225,-19 318,-56 93,-38 158,-88 195,-149 38,-62 57,-119 57,-172 0,-111 -48,-196 -143,-255 -95,-60 -241,-98 -440,-116 -269,-31 -490,-74 -662,-129 -172,-55 -312,-148 -420,-278 -108,-130 -162,-306 -162,-526 0,-199 49,-373 146,-523 97,-150 238,-271 423,-364 185,-93 404,-139 655,-139 512,0 931,124 1258,371l-358 569c-286,-190 -582,-285 -886,-285 -168,0 -298,33 -391,99 -93,67 -139,150 -139,252 0,106 61,184 182,235 121,51 321,91 599,122 362,40 631,138 808,295 176,156 264,374 264,652z"/>
    <path class="fil0" d="M18052 21530l-3084 0 -19 0 0 -19 0 -4606 0 -19 19 0 801 0 18 0 0 19 0 3859 2265 0 19 0 0 19 0 728 0 19 -19 0zm-3066 -38l3047 0 0 -690 -2264 0 -19 0 0 -19 0 -3860 -764 0 0 4569zm4817 -3309c456,0 799,92 1029,276 231,185 346,461 346,828l0 2224 0 19 -18 0 -748 0 -19 0 0 -19 0 -261c-16,19 -35,38 -57,57 -30,27 -65,54 -106,81 -41,27 -87,51 -138,72 -51,22 -107,40 -169,56 -61,16 -123,27 -186,35 -64,8 -128,12 -192,12 -176,0 -334,-22 -474,-66 -140,-43 -262,-109 -365,-197 -104,-88 -182,-194 -234,-318 -52,-123 -78,-265 -78,-424 0,-103 13,-199 38,-289 26,-89 64,-172 115,-247 50,-76 109,-142 176,-200 67,-58 142,-107 225,-148 166,-80 358,-121 577,-121l868 0 0 -219c0,-151 -51,-263 -154,-338 -105,-76 -264,-114 -476,-114 -163,0 -309,23 -437,67 -128,45 -238,111 -331,200l-15 14 -12 -16 -397 -503 -11 -13 12 -12c290,-290 701,-436 1231,-436zm1006 305c-223,-178 -558,-267 -1006,-267 -513,0 -910,137 -1193,413l374 474c94,-86 204,-150 330,-194 132,-46 282,-69 449,-69 220,0 386,41 498,121 113,82 169,205 169,368l0 238 0 19 -18 0 -887 0c-213,0 -400,39 -561,117 -80,39 -153,86 -217,142 -64,56 -121,120 -170,192 -48,73 -84,152 -109,237 -24,86 -36,179 -36,279 0,154 25,291 74,410 50,118 124,220 224,304 99,84 217,148 352,190 136,42 290,64 463,64 63,0 126,-4 187,-12 61,-7 122,-19 182,-34 60,-15 115,-33 164,-54 49,-20 93,-44 132,-69 38,-26 73,-52 102,-78 29,-26 53,-52 72,-77l9 -12 14 7 13 6 10 5 0 12 0 272 711 0 0 -2205c0,-355 -111,-622 -332,-799zm-1669 2017c0,105 45,195 135,270 46,38 104,67 175,86 71,19 156,29 254,29 65,0 128,-4 187,-14l0 0c60,-9 117,-23 171,-41 53,-18 100,-41 139,-68 39,-27 71,-58 96,-94 26,-36 46,-73 61,-110 15,-37 24,-75 29,-113l0 0c2,-17 3,-52 5,-102 1,-47 1,-109 1,-188l-742 0c-87,0 -163,8 -227,25 -64,16 -117,41 -159,73 -42,33 -73,70 -94,111 -21,41 -31,86 -31,136zm112 299c-100,-83 -149,-183 -149,-299 0,-56 11,-107 35,-153 23,-46 58,-87 104,-123 46,-36 104,-62 172,-80 68,-18 147,-26 237,-26l761 0 18 0 0 18c0,84 0,153 -1,207 -1,53 -3,89 -5,106l0 0c-5,42 -15,82 -31,123 -16,40 -38,79 -65,118 -28,39 -63,73 -106,103 -42,29 -92,53 -148,72 -57,19 -116,34 -177,43l0 0c-62,10 -127,14 -193,14 -101,0 -189,-10 -264,-30 -76,-21 -139,-52 -188,-93zm5345 -994c0,1169 -399,1753 -1197,1753 -156,0 -309,-29 -456,-88 -75,-29 -142,-66 -203,-111 -53,-39 -100,-84 -143,-134l0 281 0 19 -18 0 -748 0 -19 0 0 -19 0 -4811 0 -19 19 0 748 0 18 0 0 19 0 1820c48,-48 109,-97 183,-148 43,-29 89,-56 138,-79 50,-22 102,-42 158,-59 56,-17 111,-29 165,-38 54,-8 107,-13 158,-13 395,0 692,137 892,410 199,271 301,677 305,1217l0 0zm-1197 1716c773,0 1160,-572 1160,-1716l0 0c-4,-532 -104,-930 -298,-1195 -192,-263 -480,-394 -862,-394 -50,0 -101,4 -152,12 -52,8 -105,20 -160,36 -54,17 -105,36 -153,58 -48,23 -92,48 -133,76 -83,56 -148,111 -195,162l-10 11 -12 -7 -14 -6 -10 -5 0 -12 0 -1828 -710 0 0 4774 710 0 0 -292 0 -11 10 -6 14 -6 13 -7 10 12c45,58 97,109 155,152 58,43 123,79 194,107 144,56 291,85 443,85zm392 -1656c0,-323 -46,-562 -139,-715 -46,-75 -107,-132 -182,-169 -76,-38 -168,-57 -276,-57 -105,0 -195,20 -271,59 -75,39 -136,98 -183,177 -47,79 -83,178 -107,295 -24,118 -36,254 -36,410 0,94 5,185 15,272 10,86 25,170 44,250 20,78 46,146 80,204 34,57 74,103 122,139 48,36 100,64 156,82 56,18 116,27 180,27 95,0 178,-17 251,-52 73,-35 136,-87 188,-156 52,-69 92,-167 118,-294 27,-129 40,-286 40,-472zm-108 -735c97,160 145,405 145,735 0,188 -13,348 -41,479 -27,133 -69,236 -125,310 -55,74 -123,129 -201,167 -78,37 -167,55 -267,55 -68,0 -132,-10 -192,-29 -60,-19 -115,-48 -166,-87 -52,-39 -96,-89 -132,-150 -35,-61 -63,-132 -84,-215 -20,-81 -35,-166 -45,-254 -10,-89 -15,-181 -15,-276 0,-158 12,-297 37,-418 25,-121 62,-223 111,-306 51,-85 117,-149 198,-191 81,-42 177,-63 288,-63 113,0 211,20 292,60 82,41 148,102 197,183zm4021 1377c0,202 -60,388 -179,556 -60,85 -132,159 -216,221 -84,63 -180,115 -289,157 -108,41 -218,72 -330,92 -112,21 -226,31 -342,31 -288,0 -552,-41 -792,-125 -239,-83 -453,-209 -643,-376l-13 -11 11 -14 403 -536 13 -16 15 14c139,128 295,225 469,289 173,64 363,96 570,96 59,0 114,-4 166,-14 52,-9 100,-22 145,-41 45,-18 83,-39 114,-63 31,-23 55,-49 73,-78 17,-29 31,-58 40,-85 9,-27 13,-53 13,-77 0,-104 -45,-184 -134,-239 -45,-29 -104,-53 -176,-72 -72,-19 -157,-33 -255,-42l-1 0c-135,-15 -258,-34 -369,-55l0 0c-110,-22 -209,-47 -296,-74 -88,-28 -168,-66 -239,-113 -71,-48 -135,-105 -190,-171 -56,-67 -97,-146 -125,-236 -28,-89 -42,-190 -42,-302 0,-101 13,-196 38,-285 24,-89 61,-172 111,-248 50,-77 110,-146 182,-208 72,-61 155,-116 249,-163 94,-47 196,-82 307,-105 111,-24 229,-36 356,-36 516,0 939,125 1269,375l14 10 -9 15 -358 569 -10 16 -16 -11c-283,-187 -576,-281 -876,-281 -164,0 -291,32 -380,96 -44,31 -77,67 -99,106 -21,39 -32,82 -32,130 0,49 14,91 41,127 29,36 72,67 129,91 60,25 139,47 238,67 99,21 218,38 356,54l0 0c183,20 342,55 478,104 136,50 250,115 340,195 90,80 158,176 203,287 45,111 68,237 68,379zm-209 535c114,-162 172,-341 172,-535 0,-137 -22,-258 -65,-365 -43,-106 -108,-197 -194,-273 -86,-77 -196,-139 -328,-188 -133,-48 -289,-82 -469,-102l0 0c-139,-16 -259,-34 -360,-54 -101,-21 -182,-44 -244,-70 -64,-27 -112,-61 -144,-103 -33,-42 -49,-92 -49,-149 0,-54 12,-103 37,-148 24,-44 61,-84 109,-119 96,-68 230,-102 402,-102 302,0 596,92 881,277l338 -539c-321,-237 -732,-356 -1233,-356 -124,0 -240,11 -348,34 -108,23 -207,57 -299,103 -91,45 -171,98 -241,158 -69,59 -127,126 -175,199 -47,74 -83,153 -107,238 -23,86 -35,177 -35,275 0,108 13,206 39,291 27,86 66,160 118,223 53,64 114,118 183,164 68,45 145,81 229,108 85,28 183,52 292,73l1 0c109,22 231,40 365,56l0 0c101,8 188,23 262,42 75,20 137,45 186,76 101,63 151,153 151,271 0,28 -5,57 -15,88 -10,30 -24,61 -44,93 -20,33 -47,63 -81,89 -34,26 -75,49 -123,68 -47,19 -98,34 -153,43 -54,10 -111,14 -172,14 -211,0 -406,-32 -583,-98 -172,-64 -327,-158 -466,-283l-381 506c182,158 388,277 618,357 235,82 495,123 779,123 114,0 226,-10 335,-30 110,-20 218,-51 324,-91 105,-40 199,-91 280,-151 81,-61 150,-132 208,-213z"/>
    <path class="fil1" d="M30455 21551c-343,0 -649,-86 -918,-259 -269,-173 -479,-409 -632,-710 -152,-301 -228,-646 -228,-1035 0,-390 76,-735 228,-1036 153,-301 363,-536 632,-706 269,-170 575,-255 918,-255 305,0 577,70 816,210 239,141 424,349 556,625l-464 348c-110,-192 -244,-334 -403,-425 -159,-91 -329,-137 -511,-137 -221,0 -417,57 -591,170 -174,113 -311,272 -413,477 -101,205 -152,448 -152,729 0,281 51,525 152,732 102,207 239,367 413,480 174,114 370,171 591,171 182,0 352,-46 511,-137 159,-91 293,-233 403,-426l464 341c-132,271 -317,479 -556,625 -239,145 -511,218 -816,218zm1739 -45l0 -5487 610 0 0 5487 -610 0zm2812 45c-288,0 -541,-62 -759,-185 -218,-123 -387,-312 -508,-566 -121,-254 -181,-573 -181,-958l0 -2255 610 0 0 2174c0,385 79,673 238,865 159,193 382,289 670,289 212,0 396,-51 552,-152 157,-101 278,-249 362,-444 85,-194 127,-430 127,-706l0 -2026 610 0 0 3919 -578 0 0 -1057 95 281c-110,261 -275,463 -495,606 -220,143 -468,215 -743,215zm4292 0c-288,0 -547,-75 -778,-226 -231,-150 -413,-373 -546,-669 -133,-296 -200,-666 -200,-1109 0,-444 69,-814 206,-1110 138,-296 322,-518 553,-665 231,-148 486,-222 765,-222 330,0 622,84 876,251 254,168 456,401 604,699 148,298 222,647 222,1047 0,399 -74,749 -222,1050 -148,301 -350,535 -604,702 -254,168 -546,252 -876,252zm-1785 -45l0 -5487 610 0 0 2610 -63 910 38 910 0 1057 -585 0zm1734 -576c216,0 410,-57 581,-171 172,-113 307,-274 407,-484 99,-210 149,-452 149,-728 0,-281 -50,-524 -149,-729 -100,-205 -235,-364 -407,-477 -171,-113 -365,-170 -581,-170 -211,0 -403,57 -575,170 -171,113 -306,272 -406,477 -99,205 -149,448 -149,729 0,276 50,518 149,728 100,210 235,371 406,484 172,114 364,171 575,171z"/>
    <path class="fil1" d="M30455 21553c-172,0 -334,-22 -487,-65 -153,-43 -297,-108 -432,-194 -134,-87 -254,-189 -360,-308 -105,-118 -196,-252 -272,-403 -76,-151 -134,-312 -172,-485 -38,-173 -57,-357 -57,-551 0,-390 76,-736 229,-1037 76,-150 167,-285 272,-402 106,-118 226,-220 360,-305 135,-85 279,-149 432,-191 153,-43 315,-64 487,-64 305,0 577,70 817,211 120,70 226,157 319,262 92,104 171,225 237,363l1 2 -1 1 -464 348 -1 1 -1 -2c-55,-96 -116,-179 -183,-250 -68,-71 -141,-129 -220,-174 -79,-46 -161,-80 -246,-103 -86,-23 -174,-34 -264,-34 -220,0 -417,57 -590,170 -174,113 -311,272 -412,476 -51,102 -89,214 -114,335 -26,121 -39,252 -39,393 0,140 13,271 39,393 25,122 63,234 114,338 50,103 110,195 179,275 68,80 146,148 233,205 173,113 370,170 590,170 90,0 178,-12 264,-35 85,-22 167,-57 246,-102 79,-46 152,-104 220,-174 67,-71 128,-155 183,-251l1 -1 1 1 464 340 1 1 -1 2c-66,135 -145,255 -237,360 -93,104 -199,193 -319,265 -120,73 -248,128 -384,164 -136,37 -281,55 -433,55zm-486 -69c152,43 315,65 486,65 152,0 296,-18 432,-55 136,-36 264,-91 383,-163 120,-73 226,-161 318,-265 92,-104 171,-223 236,-358l-460 -338c-55,96 -116,179 -183,249 -68,72 -141,130 -220,176 -80,45 -162,79 -248,102 -85,23 -173,35 -264,35 -221,0 -418,-57 -592,-171 -87,-57 -165,-125 -234,-205 -69,-81 -128,-173 -179,-276 -51,-104 -89,-217 -115,-339 -25,-122 -38,-254 -38,-394 0,-141 13,-272 38,-394 26,-121 64,-233 115,-336 101,-205 239,-364 413,-478 174,-113 371,-170 592,-170 91,0 179,11 264,34 86,23 168,57 248,103 79,46 152,104 220,175 67,71 128,154 183,249l460 -345c-65,-137 -144,-258 -236,-361 -92,-104 -198,-192 -318,-262 -239,-140 -511,-210 -815,-210 -171,0 -334,21 -486,63 -153,43 -297,107 -431,192 -134,85 -254,186 -359,303 -105,118 -196,252 -272,402 -152,301 -229,645 -229,1035 0,194 19,378 58,550 38,172 95,334 171,484 76,150 167,284 272,403 105,118 225,220 359,306 134,86 278,151 431,194zm2223 22l0 -5487 0 -2 2 0 610 0 1 0 0 2 0 5487 0 2 -1 0 -610 0 -2 0 0 -2zm4 -5485l0 5483 606 0 0 -5483 -606 0zm2810 5532c-288,0 -541,-62 -760,-185 -109,-62 -206,-140 -291,-235 -84,-94 -157,-205 -217,-332 -61,-127 -106,-271 -136,-430 -31,-160 -46,-336 -46,-529l0 -2255 0 -2 2 0 610 0 2 0 0 2 0 2174c0,192 19,360 59,504 40,144 99,264 178,360 79,96 175,168 286,216 112,48 239,72 383,72 106,0 204,-13 296,-38 92,-25 177,-63 256,-114 78,-50 147,-112 207,-186 60,-74 112,-159 154,-256 42,-98 74,-205 95,-323 21,-117 32,-245 32,-383l0 -2026 0 -2 1 0 610 0 2 0 0 2 0 3919 0 2 -2 0 -578 0 -2 0 0 -2 0 -581c-32,55 -69,106 -108,154 -82,101 -179,188 -289,259 -110,72 -227,125 -351,161 -124,36 -255,54 -393,54zm-758 -189c218,123 470,185 758,185 138,0 268,-18 392,-54 124,-35 240,-89 350,-160 110,-72 206,-158 289,-259 40,-49 77,-102 110,-158l0 -469 0 -11 4 10 95 281 0 1 0 1c-28,66 -60,129 -95,188l0 585 574 0 0 -3915 -606 0 0 2024c0,138 -10,266 -32,384 -21,118 -53,226 -95,323 -42,98 -94,184 -154,258 -61,74 -130,136 -209,187 -78,51 -164,89 -256,114 -92,25 -191,38 -297,38 -144,0 -272,-24 -384,-72 -112,-49 -208,-121 -287,-217 -80,-97 -140,-217 -179,-362 -40,-144 -60,-312 -60,-505l0 -2172 -606 0 0 2253c0,193 15,368 45,528 30,159 75,302 136,429 60,127 132,237 217,332 84,94 181,172 290,233zm1903 -905l0 453c34,-57 64,-118 92,-182l-92 -271zm3147 1094c-288,0 -548,-75 -779,-226 -115,-75 -219,-169 -310,-280 -39,-48 -75,-99 -110,-153l0 612 0 2 -1 0 -585 0 -1 0 0 -2 0 -5487 0 -2 1 0 610 0 2 0 0 2 0 2156c30,-45 62,-87 95,-127 93,-112 196,-204 312,-278 115,-74 237,-130 365,-167 127,-37 261,-55 401,-55 331,0 623,84 877,251 127,84 241,185 342,301 101,117 188,250 262,399 74,149 130,311 167,486 37,175 56,362 56,562 0,399 -74,750 -223,1051 -74,150 -161,284 -262,401 -101,118 -215,218 -342,302 -127,84 -264,147 -410,189 -146,42 -302,63 -467,63zm-777 -230c230,151 489,226 777,226 165,0 320,-21 466,-63 146,-42 283,-105 410,-188 126,-84 240,-184 341,-301 100,-117 187,-251 261,-401 148,-301 222,-650 222,-1049 0,-200 -18,-387 -55,-561 -37,-174 -93,-336 -167,-485 -74,-149 -161,-282 -261,-398 -101,-116 -215,-216 -341,-300 -254,-168 -546,-251 -876,-251 -140,0 -273,18 -400,55 -128,37 -249,92 -364,166 -116,74 -219,167 -311,277 -34,42 -67,85 -98,132l0 447 0 1 -64 909 38 910 0 0 0 438c36,56 73,108 113,157 91,111 194,204 309,279zm-425 -434c-45,-72 -86,-149 -124,-232 -66,-148 -116,-315 -150,-500 -33,-185 -50,-388 -50,-610 0,-222 17,-426 52,-611 34,-185 86,-352 155,-500 43,-92 90,-177 142,-256l0 -2159 -606 0 0 5483 581 0 0 -615zm-121 -234c37,81 77,157 121,227l0 -433 0 0 -38 -910 0 0 0 0 63 -910 0 -442c-51,77 -97,160 -139,251 -69,148 -121,314 -155,499 -34,185 -51,388 -51,610 0,221 16,425 50,609 33,185 83,351 149,499zm1272 273c216,0 409,-57 580,-170 86,-57 163,-125 230,-206 68,-81 127,-173 176,-278 50,-105 87,-217 112,-339 25,-121 37,-251 37,-388 0,-141 -12,-272 -37,-393 -25,-121 -62,-233 -112,-335l0 0c-99,-204 -234,-363 -406,-476 -85,-57 -176,-99 -273,-128 -97,-28 -199,-42 -307,-42 -211,0 -402,57 -574,170 -85,56 -162,124 -230,204 -67,79 -126,170 -175,272 -50,102 -87,214 -112,335 -25,121 -37,252 -37,393 0,137 12,267 37,388 25,122 62,234 112,339 49,105 108,197 176,278 67,81 144,149 229,206 172,113 363,170 574,170zm582 -167c-172,114 -366,171 -582,171 -212,0 -404,-57 -575,-171 -86,-57 -163,-125 -231,-206 -68,-81 -127,-174 -176,-279 -50,-105 -88,-218 -113,-340 -24,-121 -37,-251 -37,-389 0,-141 13,-272 37,-394 25,-121 63,-233 113,-336l0 0c49,-102 108,-193 176,-273 68,-80 145,-148 231,-205 171,-113 363,-170 575,-170 108,0 211,14 308,43 97,28 188,71 274,127 172,114 308,273 407,478 50,103 87,215 112,336 25,122 38,253 38,394 0,138 -13,268 -38,389 -25,122 -62,235 -112,340 -50,105 -108,198 -176,279 -68,81 -145,149 -231,206z"/>
    <path class="fil2" d="M28192 21551c-112,0 -206,-40 -282,-119 -76,-80 -114,-177 -114,-294 0,-114 38,-210 115,-290 77,-79 170,-119 281,-119 112,0 206,40 282,119 77,80 116,176 116,290 0,117 -39,214 -116,294 -76,79 -170,119 -282,119z"/>
    <path class="fil2" d="M28192 21607c-63,0 -121,-12 -175,-34 -54,-23 -102,-57 -145,-102 -43,-45 -76,-96 -98,-151 -21,-56 -32,-116 -32,-182 0,-129 43,-239 131,-329 43,-45 91,-79 145,-102 54,-23 112,-34 174,-34 127,0 233,45 321,136 43,45 76,95 98,150 22,55 33,115 33,179 0,66 -11,126 -33,182 -22,55 -55,106 -98,151 -44,45 -92,79 -146,102 -54,22 -112,34 -175,34zm-134 -138c40,17 85,26 134,26 49,0 94,-9 134,-26 40,-17 77,-42 110,-77 33,-34 58,-72 75,-114 16,-42 24,-89 24,-140 0,-50 -8,-95 -24,-137 -17,-41 -42,-79 -75,-113 -66,-69 -147,-103 -244,-103 -49,0 -93,8 -133,25 -40,17 -76,43 -110,78 -66,68 -99,151 -99,250 0,52 8,98 25,140 16,42 41,80 74,114 33,35 69,60 109,77z"/>
   </g>
   <g>
    <circle class="fil3" cx="6502" cy="9583" r="657"/>
    <path class="fil0" d="M6502 8921c183,0 349,74 469,194 120,119 194,285 194,468 0,183 -74,348 -194,468 -120,120 -286,194 -469,194 -182,0 -348,-74 -468,-194 -120,-120 -194,-285 -194,-468 0,-183 74,-349 194,-468 120,-120 286,-194 468,-194zm461 201c-118,-118 -281,-191 -461,-191 -180,0 -342,73 -460,191 -118,118 -191,281 -191,461 0,180 73,343 191,461 118,118 280,191 460,191 180,0 343,-73 461,-191 118,-118 191,-281 191,-461 0,-180 -73,-343 -191,-461z"/>
    <circle class="fil4" cx="7888" cy="8413" r="573"/>
    <path class="fil1" d="M7888 7835c159,0 304,65 408,169 105,105 169,249 169,409 0,160 -64,304 -169,409 -104,104 -249,169 -408,169 -160,0 -305,-65 -409,-169 -105,-105 -169,-249 -169,-409 0,-160 64,-304 169,-409 104,-104 249,-169 409,-169zm401 177c-103,-103 -245,-166 -401,-166 -157,0 -299,63 -402,166 -102,102 -166,244 -166,401 0,157 64,298 166,401 103,103 245,166 402,166 156,0 298,-63 401,-166 102,-103 166,-244 166,-401 0,-157 -64,-299 -166,-401z"/>
    <circle class="fil5" cx="6508" cy="7828" r="537"/>
    <path class="fil2" d="M6508 7286c150,0 286,61 384,159 98,98 159,234 159,383 0,150 -61,286 -159,384 -98,98 -234,159 -384,159 -149,0 -285,-61 -383,-159 -98,-98 -159,-234 -159,-384 0,-149 61,-285 159,-383 98,-98 234,-159 383,-159zm376 166c-96,-96 -229,-155 -376,-155 -146,0 -279,59 -375,155 -97,97 -156,230 -156,376 0,147 59,280 156,376 96,96 229,156 375,156 147,0 280,-60 376,-156 97,-96 156,-229 156,-376 0,-146 -59,-279 -156,-376z"/>
   </g>
   <g>
    <g>
     <rect class="fil3" x="1000" y="16022" width="6119" height="1286" rx="405" ry="405"/>
     <path class="fil0" d="M1405 16017l5309 0c112,0 215,46 290,120 74,75 120,177 120,290l0 476c0,113 -46,215 -120,290 -75,74 -178,120 -290,120l-5309 0c-113,0 -215,-46 -290,-120 -74,-75 -120,-177 -120,-290l0 -476c0,-113 46,-215 120,-290 75,-74 177,-120 290,-120zm5309 10l-5309 0c-110,0 -210,45 -282,118 -73,72 -118,172 -118,282l0 476c0,110 45,210 118,282 72,73 172,118 282,118l5309 0c110,0 210,-45 282,-118 73,-72 118,-172 118,-282l0 -476c0,-110 -45,-210 -118,-282 -72,-73 -172,-118 -282,-118z"/>
     <rect class="fil6" x="5001" y="16449" width="1657" height="443" rx="110" ry="140"/>
     <path class="fil7" d="M5140 16443l1379 0c39,0 76,17 102,43l0 0 0 0c26,26 42,62 42,102l0 164c0,40 -16,76 -42,102 -26,26 -63,43 -102,43l-1379 0c-39,0 -76,-17 -102,-43l0 0c-26,-26 -42,-62 -42,-102l0 -164c0,-40 16,-76 42,-102 26,-26 63,-43 102,-43zm1379 11l-1379 0c-36,0 -70,15 -94,39 -25,25 -40,58 -40,95l0 164c0,37 15,70 40,95 24,24 58,39 94,39l1379 0c36,0 70,-15 94,-39 25,-25 40,-58 40,-95l0 -164c0,-37 -15,-70 -40,-95l0 0c-24,-24 -58,-39 -94,-39z"/>
    </g>
    <g>
     <rect class="fil3" x="1000" y="14521" width="6119" height="1286" rx="405" ry="405"/>
     <path class="fil0" d="M1405 14516l5309 0c112,0 215,46 290,121 74,74 120,177 120,290l0 475c0,113 -46,216 -120,290 -75,75 -178,121 -290,121l-5309 0c-113,0 -215,-46 -290,-121 -74,-74 -120,-177 -120,-290l0 -475c0,-113 46,-216 120,-290 75,-75 177,-121 290,-121zm5309 11l-5309 0c-110,0 -210,45 -282,117 -73,73 -118,173 -118,283l0 475c0,110 45,210 118,283 72,72 172,117 282,117l5309 0c110,0 210,-45 282,-117 73,-73 118,-173 118,-283l0 -475c0,-110 -45,-210 -118,-283 -72,-72 -172,-117 -282,-117z"/>
     <rect class="fil6" x="5001" y="14948" width="1657" height="443" rx="110" ry="140"/>
     <path class="fil7" d="M5140 14943l1379 0c39,0 76,16 102,42l0 0 0 0c26,26 42,63 42,102l0 164c0,40 -16,76 -42,102 -26,27 -63,43 -102,43l-1379 0c-39,0 -76,-16 -102,-43l0 0c-26,-26 -42,-62 -42,-102l0 -164c0,-39 16,-76 42,-102 26,-26 63,-42 102,-42zm1379 10l-1379 0c-36,0 -70,15 -94,40 -25,24 -40,58 -40,94l0 164c0,37 15,71 40,95 24,24 58,39 94,39l1379 0c36,0 70,-15 94,-39 25,-24 40,-58 40,-95l0 -164c0,-36 -15,-70 -40,-94l0 0c-24,-25 -58,-40 -94,-40z"/>
    </g>
    <g>
     <rect class="fil3" x="1000" y="17527" width="6119" height="1286" rx="405" ry="405"/>
     <path class="fil0" d="M1405 17522l5309 0c112,0 215,46 290,121 74,74 120,177 120,290l0 475c0,113 -46,216 -120,290 -75,74 -178,121 -290,121l-5309 0c-113,0 -215,-47 -290,-121 -74,-74 -120,-177 -120,-290l0 -475c0,-113 46,-216 120,-290 75,-75 177,-121 290,-121zm5309 10l-5309 0c-110,0 -210,45 -282,118 -73,73 -118,173 -118,283l0 475c0,110 45,210 118,283 72,72 172,117 282,117l5309 0c110,0 210,-45 282,-117 73,-73 118,-173 118,-283l0 -475c0,-110 -45,-210 -118,-283 -72,-73 -172,-118 -282,-118z"/>
     <circle class="fil6" cx="1713" cy="18182" r="230"/>
     <path class="fil7" d="M1713 17947c65,0 124,26 166,69 43,42 69,101 69,166 0,64 -26,123 -69,166l0 0c-42,42 -101,68 -166,68 -65,0 -123,-26 -166,-68l0 0c-42,-43 -69,-102 -69,-166 0,-65 27,-124 69,-166 43,-43 101,-69 166,-69zm159 76c-41,-41 -97,-66 -159,-66 -62,0 -118,25 -159,66 -40,41 -65,97 -65,159 0,61 25,118 66,158l0 0c40,41 96,66 158,66 62,0 118,-25 159,-66l0 0c40,-40 65,-97 65,-158 0,-62 -25,-118 -65,-159z"/>
     <circle class="fil6" cx="2455" cy="18182" r="230"/>
     <path class="fil7" d="M2455 17950c64,0 122,26 164,68 42,42 68,100 68,164 0,63 -26,121 -68,163 -42,42 -100,68 -164,68 -63,0 -121,-26 -163,-68 -42,-42 -68,-100 -68,-163 0,-64 26,-122 68,-164 42,-42 100,-68 163,-68zm161 71c-41,-41 -98,-67 -161,-67 -62,0 -119,26 -160,67 -42,41 -67,98 -67,161 0,62 25,119 67,160 41,42 98,67 160,67 63,0 120,-25 161,-67 42,-41 67,-98 67,-160 0,-63 -25,-120 -67,-161z"/>
    </g>
    <g>
     <rect class="fil3" x="2547" y="19342" width="3025" height="368" rx="162" ry="163"/>
     <path class="fil0" d="M2710 19337l2699 0c46,0 88,19 119,50 30,30 49,72 49,118l0 42c0,47 -19,89 -49,119 -31,31 -73,50 -119,50l-2699 0c-46,0 -88,-19 -119,-50 -30,-30 -49,-72 -49,-119l0 -42c0,-46 19,-88 49,-118 31,-31 73,-50 119,-50zm2699 11l-2699 0c-43,0 -83,17 -111,46 -29,29 -47,68 -47,111l0 42c0,44 18,83 47,112 28,28 68,46 111,46l2699 0c43,0 82,-18 111,-46 29,-29 46,-68 46,-112l0 -42c0,-43 -17,-82 -46,-111 -29,-29 -68,-46 -111,-46z"/>
     <rect class="fil3" x="3868" y="18813" width="382" height="529"/>
     <path class="fil0" d="M3868 18808l383 0 5 0 0 5 0 529 0 6 -5 0 -383 0 -5 0 0 -6 0 -529 0 -5 5 0zm377 11l-371 0 0 518 371 0 0 -518z"/>
     <circle class="fil3" cx="4059" cy="19526" r="325"/>
     <path class="fil0" d="M4059 19196c92,0 174,37 234,97 60,60 97,142 97,233 0,92 -37,174 -97,234 -60,60 -142,97 -234,97 -91,0 -173,-37 -233,-97 -60,-60 -97,-142 -97,-234 0,-91 37,-173 97,-233 60,-60 142,-97 233,-97zm227 104c-58,-58 -138,-93 -227,-93 -88,0 -168,35 -226,93 -58,58 -93,138 -93,226 0,89 35,169 93,227 58,57 138,93 226,93 89,0 169,-36 227,-93 57,-58 93,-138 93,-227 0,-88 -36,-168 -93,-226z"/>
     <circle class="fil3" cx="2206" cy="19526" r="184"/>
     <path class="fil0" d="M2206 19337c53,0 100,21 134,56 34,34 56,81 56,133 0,53 -22,100 -56,134l0 0c-34,35 -81,56 -134,56 -52,0 -99,-21 -134,-56l0 0 0 0c-34,-34 -55,-81 -55,-134 0,-52 21,-99 55,-133l0 0c35,-35 82,-56 134,-56zm127 63c-33,-32 -77,-52 -127,-52 -49,0 -94,20 -126,52l0 0c-32,32 -52,77 -52,126 0,50 20,95 52,127l0 0c32,32 77,52 126,52 50,0 94,-20 127,-52l0 0c32,-32 52,-77 52,-127 0,-49 -20,-94 -52,-126z"/>
     <circle class="fil3" cx="6413" cy="19526" r="184"/>
     <path class="fil0" d="M6413 19337c52,0 100,21 134,56 34,34 55,81 55,133 0,53 -21,100 -55,134l0 0c-34,35 -82,56 -134,56 -52,0 -100,-21 -134,-56l0 0c-34,-34 -55,-81 -55,-134 0,-52 21,-99 55,-133 34,-35 82,-56 134,-56zm127 63c-33,-32 -78,-52 -127,-52 -49,0 -94,20 -126,52 -33,32 -53,77 -53,126 0,50 20,95 53,127l0 0c32,32 77,52 126,52 49,0 94,-20 127,-52l0 0c32,-32 52,-77 52,-127 0,-49 -20,-94 -52,-126z"/>
     <circle class="fil3" cx="1711" cy="19526" r="184"/>
     <path class="fil0" d="M1711 19337c53,0 100,21 134,56 35,34 56,81 56,133 0,53 -21,100 -56,134l0 0c-34,35 -81,56 -134,56 -52,0 -99,-21 -133,-56l0 0 0 0c-35,-34 -56,-81 -56,-134 0,-52 21,-99 56,-133l0 0c34,-35 81,-56 133,-56zm127 63c-33,-32 -77,-52 -127,-52 -49,0 -94,20 -126,52l0 0c-32,32 -52,77 -52,126 0,50 20,95 52,127l0 0c32,32 77,52 126,52 50,0 94,-20 127,-52l0 0c32,-32 52,-77 52,-127 0,-49 -20,-94 -52,-126z"/>
     <circle class="fil3" cx="5918" cy="19526" r="184"/>
     <path class="fil0" d="M5918 19337c52,0 100,21 134,56 34,34 56,81 56,133 0,53 -22,100 -56,134l0 0c-34,35 -82,56 -134,56 -52,0 -99,-21 -134,-56l0 0c-34,-34 -55,-81 -55,-134 0,-52 21,-99 55,-133 35,-35 82,-56 134,-56zm127 63c-33,-32 -77,-52 -127,-52 -49,0 -94,20 -126,52 -33,32 -53,77 -53,126 0,50 20,95 53,127l0 0c32,32 77,52 126,52 50,0 94,-20 127,-52l0 0c32,-32 52,-77 52,-127 0,-49 -20,-94 -52,-126z"/>
    </g>
   </g>
   <path class="fil4" d="M5446 10893l3379 0c211,0 384,173 384,385l0 0c0,211 -173,384 -384,384l-3379 0c-211,0 -384,-173 -384,-384l0 0c0,-212 173,-385 384,-385zm2379 769l804 0 0 1104 0 0c1758,620 3016,2031 3016,4264 0,2233 -1927,4521 -4520,4521 -1315,0 -2498,-588 -3324,-1458l1094 0 2 1c21,15 39,28 60,43 614,429 1362,682 2168,682 2092,0 3788,-1816 3788,-3789 0,-1972 -1329,-3395 -3088,-3723l0 0 0 -743 0 -902zm-1386 1182l594 0 0 265 -594 0 0 195c-725,133 -1378,472 -1895,954l-990 0c523,-696 1236,-1195 2081,-1497l0 0 0 -1099 804 0 0 245 594 0 0 266 -594 0 0 219 964 0 0 265 -964 0 0 187z"/>
   <path class="fil1" d="M5446 10888l3379 0c107,0 204,44 275,114 71,71 115,168 115,276 0,107 -44,204 -115,275 -71,71 -168,114 -275,114l-191 0 0 1095c918,324 1699,864 2237,1624 492,696 780,1576 780,2644l0 1 0 0c0,1118 -483,2249 -1290,3101 -806,852 -1938,1424 -3235,1424l0 0 -1 0 0 0c-638,0 -1244,-138 -1794,-379 -586,-257 -1107,-631 -1534,-1081l-8 -9 12 0 1094 0 1 0 1 1 3 2 0 0 0 0c10,7 20,14 30,21 11,8 20,15 30,22 312,218 659,390 1030,507 358,112 739,173 1135,173 1029,0 1962,-440 2644,-1122 703,-702 1139,-1661 1139,-2661 0,-961 -316,-1792 -844,-2428 -554,-668 -1341,-1122 -2240,-1290l-4 -1 0 -4 0 -743 0 -897 -1376 0 0 235 589 0 5 0 0 5 0 266 0 5 -5 0 -589 0 0 208 959 0 5 0 0 6 0 265 0 6 -5 0 -959 0 0 175 589 0 5 0 0 6 0 265 0 6 -5 0 -589 0 0 189 0 5 -4 0c-358,66 -698,182 -1013,340 -322,162 -618,369 -880,613l-1 1 -2 0 -990 0 -10 0 6 -8c259,-345 564,-641 909,-889 352,-253 744,-456 1171,-609l0 -1090 -184 0c-107,0 -205,-43 -275,-114 -71,-71 -115,-168 -115,-275 0,-108 44,-205 115,-276 70,-70 168,-114 275,-114zm3379 10l-3379 0c-104,0 -199,43 -268,112 -68,69 -111,163 -111,268 0,104 43,199 111,267 69,69 164,112 268,112l184 0 5 0 804 0 5 0 1376 0 5 0 804 0 5 0 191 0c104,0 199,-43 268,-112 68,-68 111,-163 111,-267 0,-105 -43,-199 -111,-268 -69,-69 -164,-112 -268,-112zm-201 769l-793 0 0 897 0 738c899,169 1686,624 2241,1293 529,638 846,1471 846,2435 0,1003 -437,1964 -1141,2669 -684,684 -1620,1125 -2652,1125 -397,0 -779,-61 -1138,-174 -373,-117 -720,-290 -1033,-509 -11,-7 -21,-15 -30,-21 -9,-7 -19,-14 -30,-21l-1 -1 -1080 0c424,445 942,815 1522,1069 549,241 1154,378 1790,379l0 0 1 0 0 0c1294,0 2423,-572 3228,-1422 805,-849 1286,-1978 1286,-3093l0 0 0 -1c0,-1065 -287,-1944 -778,-2638 -537,-759 -1318,-1298 -2235,-1621l-3 -1 0 -4 0 -1099zm-2191 0l-793 0 0 1094 0 4 -3 1c-427,153 -820,355 -1172,608 -341,246 -643,538 -900,879l977 0c261,-244 558,-451 880,-613 315,-159 654,-274 1011,-340l0 -191 0 -5 6 0 589 0 0 -255 -589 0 -6 0 0 -5 0 -187 0 -5 6 0 959 0 0 -255 -959 0 -6 0 0 -5 0 -219 0 -6 6 0 589 0 0 -255 -589 0 -6 0 0 -5 0 -240z"/>
   <path class="fil8" d="M12273 11566l0 -1c-2,-2 -4,-5 -6,-7l-1 -1 -4 -6 -1 -2 -4 -6 -1 -2 -5 -7 0 -1 -5 -7 0 -1 -4 -6 -1 -2 -4 -7 0 -1c-2,-3 -3,-5 -4,-8l-1 0c-25,-51 -39,-109 -39,-170l0 -2401 -1331 0 0 304c0,212 -172,383 -383,383 -128,0 -242,-63 -312,-160l-2031 -2031 -90 91c-150,149 -392,149 -542,0 -150,-150 -150,-392 0,-542l358 -358c76,-76 175,-113 274,-112 99,-1 199,36 275,112l1739 1739c63,-105 175,-177 304,-186 16,-2 33,-3 50,-3l2072 0c191,0 349,140 377,323 4,22 6,45 6,68l0 2615 1260 1259c12,12 24,25 34,39l1 1c2,2 3,4 5,6l1 2 4 6 2 2 4 6 1 1c1,3 3,5 4,7l1 1 4 7 1 2 3 6 2 2 3 7 1 1c1,2 3,5 4,8l0 0c25,51 39,109 39,169l0 8403c0,10 0,20 -1,30 1,10 1,20 1,30 0,211 -171,383 -383,383l-3471 0c-212,0 -383,-172 -383,-383 0,-212 171,-383 383,-383l3088 0 0 -7921 -1259 -1259c-13,-13 -24,-26 -35,-39zm-17 -25c-2,-2 -3,-4 -5,-7l0 -1c-2,-2 -3,-4 -5,-7m-5 -9c-1,-3 -3,-5 -4,-7m2039 993c1,2 3,5 4,7m6 10c1,2 2,4 3,7m-12304 125c0,-61 15,-118 40,-169l0 -1c1,-2 3,-5 4,-7l1 -2 3 -6 1 -2 4 -7 1 -1 4 -7 1 -1c1,-2 3,-4 4,-7l1 -1 4 -6 1 -2c2,-2 3,-4 5,-6l1 -2c2,-2 3,-4 5,-6l0 -1c11,-14 23,-27 35,-39l1825 -1825c149,-149 392,-149 542,0 149,150 149,392 0,542l-1715 1715 0 737c0,212 -172,383 -384,383 -211,0 -383,-171 -383,-383l0 -896zm69 -219l5 -6"/>
  </g>
 </g>
</svg>
